<svg width="136" height="99" viewBox="0 0 136 99" fill="none" xmlns="http://www.w3.org/2000/svg">
<g clip-path="url(#clip0_114_10607)">
<path d="M22.24 80.33L24.95 81.75C24.06 83.49 23.04 84.9 21.87 85.98C20.71 87.05 19.39 87.87 17.94 88.42C16.48 88.98 14.84 89.26 13 89.26C8.92001 89.26 5.74001 87.92 3.44001 85.25C1.14001 82.58 -0.00999451 79.56 -0.00999451 76.19C-0.00999451 73.02 0.960006 70.2 2.91001 67.72C5.38001 64.57 8.68001 62.99 12.81 62.99C16.94 62.99 20.47 64.61 23.01 67.83C24.82 70.11 25.74 72.96 25.77 76.37H3.31001C3.37001 79.27 4.30001 81.65 6.09001 83.5C7.88001 85.35 10.1 86.28 12.73 86.28C14 86.28 15.24 86.06 16.44 85.61C17.64 85.17 18.66 84.58 19.51 83.85C20.35 83.12 21.26 81.94 22.24 80.31V80.33ZM22.24 73.62C21.81 71.91 21.19 70.54 20.37 69.51C19.55 68.48 18.47 67.66 17.12 67.03C15.77 66.41 14.36 66.09 12.87 66.09C10.42 66.09 8.31001 66.88 6.55001 68.45C5.26001 69.6 4.29001 71.32 3.63001 73.62H22.25H22.24Z" fill="#4F4F50"/>
<path d="M44.33 66.37L42.27 68.5C40.55 66.83 38.87 66 37.23 66C36.19 66 35.29 66.34 34.55 67.03C33.8 67.72 33.43 68.52 33.43 69.44C33.43 70.25 33.73 71.02 34.35 71.76C34.96 72.51 36.25 73.39 38.21 74.4C40.6 75.64 42.23 76.83 43.09 77.98C43.93 79.14 44.36 80.45 44.36 81.91C44.36 83.96 43.64 85.7 42.2 87.12C40.76 88.54 38.96 89.25 36.8 89.25C35.36 89.25 33.99 88.93 32.67 88.31C31.36 87.69 30.27 86.82 29.42 85.71L31.44 83.42C33.08 85.27 34.82 86.2 36.66 86.2C37.95 86.2 39.04 85.79 39.95 84.96C40.86 84.13 41.31 83.16 41.31 82.05C41.31 81.13 41.01 80.31 40.42 79.6C39.82 78.89 38.47 78.01 36.37 76.93C34.12 75.77 32.58 74.62 31.77 73.48C30.96 72.35 30.55 71.05 30.55 69.6C30.55 67.7 31.2 66.13 32.49 64.87C33.79 63.61 35.42 62.99 37.4 62.99C39.7 62.99 42.02 64.11 44.34 66.37H44.33Z" fill="#A6A5A5"/>
<path d="M50.02 54H53.24V68.12C54.54 66.41 55.97 65.12 57.53 64.27C59.09 63.42 60.78 63 62.6 63C64.42 63 66.13 63.48 67.57 64.42C69.01 65.37 70.08 66.64 70.77 68.24C71.46 69.84 71.8 72.34 71.8 75.76V88.61H68.58V76.7C68.58 73.82 68.47 71.9 68.24 70.94C67.84 69.29 67.12 68.04 66.07 67.21C65.02 66.38 63.65 65.96 61.95 65.96C60.01 65.96 58.26 66.6 56.73 67.89C55.19 69.17 54.18 70.77 53.69 72.67C53.39 73.9 53.23 76.16 53.23 79.46V88.62H50.01V54H50.02Z" fill="#A6A5A5"/>
<path d="M90.52 62.99C94.37 62.99 97.55 64.38 100.09 67.17C102.39 69.71 103.54 72.72 103.54 76.19C103.54 79.66 102.32 82.73 99.89 85.34C97.46 87.95 94.33 89.26 90.52 89.26C86.71 89.26 83.55 87.95 81.13 85.34C78.7 82.73 77.48 79.68 77.48 76.19C77.48 72.7 78.63 69.73 80.93 67.19C83.46 64.39 86.66 62.99 90.52 62.99ZM90.51 66.14C87.84 66.14 85.54 67.13 83.62 69.1C81.7 71.07 80.74 73.46 80.74 76.26C80.74 78.07 81.18 79.75 82.05 81.31C82.93 82.87 84.11 84.07 85.6 84.93C87.09 85.78 88.72 86.2 90.51 86.2C92.3 86.2 93.93 85.78 95.42 84.93C96.91 84.08 98.09 82.88 98.97 81.31C99.85 79.74 100.28 78.07 100.28 76.26C100.28 73.46 99.32 71.07 97.39 69.1C95.46 67.13 93.17 66.14 90.52 66.14H90.51Z" fill="#A6A5A5"/>
<path d="M109.52 63.64H112.74V68.23C114.01 66.49 115.47 65.17 117.12 64.3C118.77 63.43 120.61 62.99 122.65 62.99C126.2 62.99 129.23 64.27 131.75 66.83C134.27 69.39 135.53 72.46 135.53 76.06C135.53 79.66 134.28 82.85 131.78 85.42C129.28 87.98 126.26 89.27 122.73 89.27C120.74 89.27 118.92 88.86 117.25 88.03C115.58 87.2 114.08 85.97 112.73 84.33V97.76H109.51V63.65L109.52 63.64ZM122.37 66.09C119.59 66.09 117.25 67.06 115.35 69C113.45 70.94 112.5 73.36 112.5 76.25C112.5 78.15 112.92 79.85 113.77 81.36C114.62 82.87 115.83 84.07 117.41 84.96C118.99 85.85 120.66 86.29 122.42 86.29C124.18 86.29 125.77 85.84 127.29 84.95C128.81 84.06 130.02 82.81 130.92 81.2C131.82 79.59 132.27 77.91 132.27 76.15C132.27 74.39 131.82 72.69 130.93 71.1C130.04 69.51 128.83 68.27 127.32 67.4C125.81 66.52 124.16 66.08 122.37 66.08V66.09Z" fill="#A6A5A5"/>
<path fill-rule="evenodd" clip-rule="evenodd" d="M87.24 25.71V5.36H54.32V4.81C54.35 2.18 52.23 0.03 49.6 0H49.58C48.71 0 48 0.71 48 1.58C48 2.45 48.71 3.16 49.58 3.16C50.44 3.15 51.15 3.83 51.16 4.69V31.54C51.13 34.17 53.25 36.32 55.88 36.35H85.59C86.46 36.35 87.17 35.64 87.17 34.77C87.17 33.9 86.46 33.19 85.59 33.19H55.9C55.04 33.2 54.33 32.52 54.32 31.66V28.66L87.24 25.7V25.71ZM70.26 20.35H76.1V23.44L70.26 23.99V20.35ZM68.13 24.2L62.29 24.75V20.35H68.13V24.2ZM70.26 18.22V14.44H76.1V18.22H70.26ZM68.13 18.22H62.29V14.44H68.13V18.22ZM60.16 18.22H54.32V14.44H60.16V18.22ZM60.16 20.35V24.89L54.32 25.44V20.35H60.16ZM84.08 22.76L78.24 23.31V20.35H84.08V22.76ZM84.08 18.22H78.24V14.44H84.08V18.22ZM84.08 8.6V12.38H78.24V8.6H84.08ZM76.11 8.6V12.38H70.27V8.6H76.11ZM68.14 8.6V12.38H62.3V8.6H68.14ZM60.17 12.31H54.33V8.6H60.17V12.31Z" fill="#EC7334"/>
<path d="M57.62 42.89C59.4 42.89 60.85 41.44 60.85 39.66C60.85 37.88 59.4 36.43 57.62 36.43C55.84 36.43 54.39 37.88 54.39 39.66C54.39 41.44 55.84 42.89 57.62 42.89Z" fill="#EC7334"/>
<path d="M81.19 42.89C82.97 42.89 84.42 41.44 84.42 39.66C84.42 37.88 82.97 36.43 81.19 36.43C79.41 36.43 77.96 37.88 77.96 39.66C77.96 41.44 79.41 42.89 81.19 42.89Z" fill="#EC7334"/>
</g>
<defs>
<clipPath id="clip0_114_10607">
<rect width="135.53" height="98.1" fill="white"/>
</clipPath>
</defs>
</svg>
