<svg width="603" height="182" viewBox="0 0 603 182" fill="none" xmlns="http://www.w3.org/2000/svg">
<g clip-path="url(#clip0_219_18)">
<path d="M373.64 141.93C338.64 167.73 287.91 181.5 244.23 181.5C182.99 181.5 127.85 158.84 86.14 121.17C82.87 118.17 85.8 114.17 89.73 116.48C134.73 142.67 190.41 158.42 247.9 158.42C289.353 158.23 330.359 149.846 368.56 133.75C374.49 131.24 379.44 137.63 373.65 141.93" fill="#FF9900"/>
<path d="M388.2 125.29C383.74 119.57 358.62 122.59 347.35 123.92C343.92 124.34 343.35 121.35 346.49 119.2C366.49 105.13 399.31 109.2 403.14 113.91C406.97 118.62 402.14 151.56 383.35 167.26C380.46 169.67 377.71 168.39 378.99 165.19C383.22 154.65 392.68 131.03 388.2 125.29" fill="#FF9900"/>
<path d="M348.14 19.82V6.13001C348.127 5.66878 348.21 5.20987 348.381 4.7817C348.553 4.35353 348.811 3.96522 349.14 3.64084C349.468 3.31647 349.859 3.06292 350.289 2.89593C350.719 2.72893 351.179 2.65203 351.64 2.67001H412.91C413.373 2.65373 413.834 2.7315 414.265 2.89859C414.697 3.06568 415.09 3.31863 415.421 3.64211C415.752 3.96559 416.014 4.35288 416.191 4.78052C416.367 5.20816 416.456 5.66725 416.45 6.13001V17.85C416.45 19.85 414.77 22.39 411.83 26.45L380.04 71.75C391.84 71.46 404.29 73.22 415.04 79.25C416.002 79.7724 416.809 80.5393 417.38 81.4734C417.95 82.4075 418.264 83.4757 418.29 84.57V99.17C418.29 101.17 416.09 103.5 413.78 102.29C394.93 92.41 369.89 91.29 349.05 102.4C346.93 103.55 344.7 101.24 344.7 99.25V85.41C344.7 83.18 344.7 79.41 346.96 76L383.69 23.25H351.64C351.179 23.2705 350.719 23.1966 350.287 23.0329C349.856 22.8692 349.462 22.6191 349.131 22.298C348.799 21.9768 348.537 21.5914 348.36 21.1653C348.183 20.7392 348.094 20.2815 348.1 19.82" fill="#221F1F"/>
<path d="M124.64 105.2H106C105.156 105.161 104.355 104.818 103.744 104.236C103.132 103.654 102.751 102.871 102.67 102.03V6.37C102.678 5.90778 102.777 5.45167 102.962 5.02802C103.147 4.60437 103.414 4.22157 103.748 3.90173C104.082 3.58189 104.476 3.33134 104.907 3.16455C105.338 2.99777 105.798 2.91805 106.26 2.93H123.64C124.497 2.95845 125.314 3.29965 125.937 3.88918C126.559 4.47872 126.945 5.27581 127.02 6.13V18.64H127.37C131.9 6.55 140.37 0.910004 151.9 0.910004C163.57 0.910004 170.9 6.55 176.1 18.64C180.64 6.55 190.86 0.910004 201.85 0.910004C209.66 0.910004 218.21 4.14 223.42 11.37C229.32 19.42 228.12 31.12 228.12 41.37V101.74C228.112 102.203 228.013 102.66 227.828 103.085C227.643 103.51 227.377 103.894 227.043 104.215C226.71 104.537 226.316 104.789 225.885 104.958C225.453 105.127 224.993 105.209 224.53 105.2H205.88C204.987 105.155 204.145 104.772 203.523 104.13C202.902 103.488 202.547 102.634 202.53 101.74V51.04C202.53 47.04 202.9 36.94 202 33.11C200.62 26.68 196.45 24.88 191 24.88C188.584 24.967 186.246 25.7583 184.274 27.1565C182.302 28.5547 180.782 30.499 179.9 32.75C177.99 37.58 178.17 45.65 178.17 51.08V101.75C178.162 102.213 178.063 102.67 177.878 103.095C177.693 103.52 177.427 103.904 177.093 104.225C176.76 104.547 176.366 104.799 175.935 104.968C175.503 105.137 175.043 105.219 174.58 105.21H155.97C155.08 105.162 154.241 104.778 153.623 104.136C153.005 103.494 152.654 102.641 152.64 101.75V51.05C152.64 40.38 154.39 24.68 141.15 24.68C127.76 24.68 128.28 39.99 128.28 51.05V101.75C128.272 102.213 128.173 102.67 127.988 103.095C127.803 103.52 127.537 103.904 127.203 104.225C126.87 104.547 126.476 104.799 126.045 104.968C125.613 105.137 125.153 105.219 124.69 105.21" fill="#221F1F"/>
<path d="M469.15 0.910004C496.81 0.910004 511.78 24.67 511.78 54.91C511.78 84.09 495.24 107.24 469.15 107.24C441.99 107.24 427.21 83.48 427.21 53.89C427.21 24.1 442.21 0.950004 469.15 0.950004M469.31 20.49C455.57 20.49 454.71 39.2 454.71 50.87C454.71 62.54 454.53 87.52 469.15 87.52C483.6 87.52 484.28 67.39 484.28 55.12C484.28 47.04 483.94 37.4 481.5 29.74C479.41 23.08 475.24 20.49 469.31 20.49" fill="#221F1F"/>
<path d="M547.64 105.2H529.09C528.196 105.155 527.353 104.773 526.73 104.131C526.106 103.489 525.749 102.635 525.73 101.74V6.05C525.834 5.17525 526.261 4.3708 526.927 3.79385C527.592 3.21689 528.449 2.90888 529.33 2.93H546.6C547.37 2.95599 548.112 3.23132 548.712 3.7146C549.313 4.19788 549.74 4.863 549.93 5.61V20.24H550.27C555.46 7.15 562.77 0.910004 575.64 0.910004C584 0.910004 592.15 3.91 597.4 12.19C602.27 19.84 602.27 32.71 602.27 41.97V102.19C602.133 103.038 601.694 103.809 601.035 104.36C600.375 104.911 599.539 105.206 598.68 105.19H580C579.189 105.146 578.417 104.824 577.816 104.277C577.215 103.731 576.821 102.993 576.7 102.19V50.19C576.7 39.73 577.9 24.42 565.03 24.42C560.49 24.42 556.33 27.42 554.25 32.07C551.63 37.92 551.25 43.74 551.25 50.19V101.75C551.221 102.69 550.823 103.58 550.141 104.228C549.46 104.876 548.55 105.229 547.61 105.21" fill="#221F1F"/>
<path d="M299.3 59.51V55.51C285.82 55.51 271.58 58.39 271.58 74.28C271.58 82.33 275.75 87.78 282.91 87.78C288.15 87.78 292.85 84.56 295.81 79.32C299.48 72.87 299.3 66.81 299.3 59.55M318.09 104.98C317.489 105.493 316.746 105.811 315.96 105.891C315.174 105.972 314.382 105.811 313.69 105.43C307.5 100.29 306.4 97.9 302.99 93C292.77 103.44 285.53 106.56 272.27 106.56C256.59 106.56 244.37 96.88 244.37 77.56C244.37 62.43 252.58 52.13 264.24 47.09C274.36 42.64 288.49 41.85 299.3 40.62V38.12C299.3 33.68 299.64 28.44 297.04 24.61C294.76 21.18 290.41 19.76 286.58 19.76C279.48 19.76 273.13 23.41 271.58 30.96C271.27 32.64 270.04 34.29 268.36 34.37L250.27 32.43C249.826 32.3664 249.399 32.2132 249.016 31.9797C248.633 31.7461 248.301 31.4371 248.041 31.0714C247.781 30.7057 247.598 30.2909 247.503 29.8523C247.409 29.4137 247.404 28.9604 247.49 28.52C251.64 6.6 271.45 0 289.18 0C298.25 0 310.1 2.41 317.25 9.28C326.33 17.74 325.46 29.04 325.46 41.34V70.39C325.46 79.12 329.08 82.95 332.46 87.67C333.66 89.34 333.92 91.36 332.4 92.67C328.6 95.84 321.84 101.74 318.12 105.04H318.06" fill="#221F1F"/>
<path d="M54.93 59.51V55.51C41.45 55.51 27.22 58.39 27.22 74.28C27.22 82.33 31.39 87.78 38.54 87.78C43.79 87.78 48.48 84.56 51.44 79.32C55.11 72.87 54.93 66.81 54.93 59.55M73.73 104.98C73.1269 105.493 72.3824 105.81 71.5949 105.89C70.8075 105.971 70.0142 105.81 69.32 105.43C63.13 100.29 62.03 97.9 58.62 93C48.4 103.44 41.16 106.56 27.9 106.56C12.22 106.56 0 96.88 0 77.56C0 62.43 8.21 52.13 19.88 47.09C30 42.55 44.13 41.75 54.93 40.53V38.12C54.93 33.68 55.27 28.44 52.67 24.61C50.39 21.18 46.04 19.75 42.21 19.75C35.11 19.75 28.76 23.4 27.21 30.95C26.89 32.63 25.66 34.28 23.98 34.36L5.9 32.43C5.4558 32.3664 5.02917 32.2132 4.64602 31.9797C4.26287 31.7461 3.93121 31.4371 3.67119 31.0714C3.41117 30.7057 3.22823 30.2909 3.13347 29.8523C3.03872 29.4137 3.03414 28.9604 3.12 28.52C7.29 6.6 27.09 0 44.81 0C53.88 0 65.73 2.41 72.89 9.28C81.96 17.74 81.09 29.04 81.09 41.34V70.39C81.09 79.12 84.71 82.95 88.09 87.67C89.29 89.34 89.56 91.36 88.09 92.67C84.28 95.84 77.52 101.74 73.8 105.04" fill="#221F1F"/>
</g>
<defs>
<clipPath id="clip0_219_18">
<rect width="602.28" height="181.5" fill="white"/>
</clipPath>
</defs>
</svg>
