<svg width="71" height="35" viewBox="0 0 71 35" fill="none" xmlns="http://www.w3.org/2000/svg">
<path fill-rule="evenodd" clip-rule="evenodd" d="M64.4433 29.8952V30.0701C64.4149 30.9277 64.7 31.7658 65.2444 32.4249C65.4877 32.724 65.7947 32.964 66.1426 33.1268C66.4904 33.2896 66.8702 33.3711 67.2537 33.3652C67.6968 33.3736 68.1362 33.2818 68.5396 33.0966C68.9367 32.8927 69.2809 32.5975 69.5442 32.2348L70.1118 32.6733C69.4421 33.6517 68.4734 34.1409 67.2059 34.1409C66.5404 34.1517 65.8854 33.9717 65.3172 33.6217C64.749 33.2717 64.2909 32.7662 63.9962 32.1638C63.6769 31.5135 63.5159 30.7958 63.5265 30.0701V29.7406C63.5149 28.9957 63.6721 28.2579 63.9861 27.5836C64.2652 26.9674 64.7076 26.4411 65.2645 26.0628C65.7884 25.7044 66.4072 25.5136 67.0402 25.5153C67.4869 25.4956 67.9322 25.5782 68.3428 25.7568C68.7534 25.9355 69.1186 26.2056 69.4111 26.5469C69.9971 27.2363 70.2893 28.1776 70.2876 29.3706V29.8775L64.4433 29.8952ZM69.3985 29.0106C69.4054 28.3013 69.1665 27.6118 68.7229 27.0615C68.5206 26.815 68.2652 26.6185 67.9762 26.4867C67.6872 26.3549 67.3722 26.2914 67.0553 26.301C66.73 26.2948 66.4072 26.3596 66.109 26.4908C65.8108 26.622 65.5441 26.8167 65.3273 27.0615C64.8327 27.6322 64.5333 28.3486 64.4734 29.1044H69.3985V29.0106ZM57.4712 32.4857C57.6955 32.7795 57.987 33.0142 58.3207 33.1696C58.6544 33.3249 59.0204 33.3964 59.3875 33.3779C59.9651 33.3976 60.5301 33.2048 60.9773 32.8355C61.1883 32.6645 61.3603 32.4497 61.4817 32.2057C61.603 31.9616 61.6709 31.694 61.6806 31.4211H62.5546C62.532 31.919 62.369 32.4 62.0849 32.8076C61.7916 33.2285 61.3953 33.5655 60.9346 33.786C60.4561 34.0219 59.9301 34.1433 59.3976 34.1409C58.9127 34.1615 58.4297 34.0697 57.9856 33.8724C57.5414 33.6751 57.1481 33.3776 56.8358 33.0028C56.2062 32.2474 55.8915 31.2336 55.8915 29.9611V29.6722C55.8768 28.9249 56.0215 28.1832 56.3159 27.4974C56.572 26.9019 56.9955 26.3952 57.534 26.04C58.0907 25.6926 58.7357 25.5164 59.39 25.533C60.2089 25.5032 61.0075 25.7948 61.6178 26.3467C61.9093 26.6212 62.1426 26.9526 62.3036 27.3207C62.4647 27.6888 62.55 28.0861 62.5546 28.4885H61.6806C61.6379 28.0145 61.4556 27.5642 61.1571 27.1957C60.8586 26.8272 60.4576 26.5574 60.0058 26.421C59.5539 26.2846 59.0719 26.288 58.622 26.4306C58.172 26.5732 57.7747 26.8485 57.4813 27.2211C57.0292 27.8227 56.8031 28.6625 56.8031 29.7406V30.0093C56.7964 31.0587 57.0191 31.8841 57.4712 32.4857ZM54.7587 26.4024C54.2377 26.3863 53.7279 26.5569 53.3196 26.884C52.9013 27.2468 52.6077 27.7339 52.4808 28.2756V33.9812H51.5791V25.6775H52.4657L52.4808 27.0006C52.6735 26.5471 52.9981 26.1634 53.4115 25.9C53.825 25.6366 54.3079 25.506 54.7964 25.5254C55.0011 25.5169 55.2053 25.5505 55.3967 25.6243L55.3716 26.4607C55.1695 26.4226 54.9643 26.4031 54.7587 26.4024ZM44.263 30.0651C44.2335 30.9228 44.5188 31.7613 45.0642 32.4198C45.3072 32.7192 45.6142 32.9594 45.9621 33.1222C46.31 33.2851 46.6899 33.3664 47.0734 33.3602C47.5165 33.3683 47.9558 33.2765 48.3593 33.0915C48.7566 32.8879 49.1008 32.5926 49.3639 32.2297L49.9341 32.6682C49.2643 33.6466 48.2957 34.1358 47.0282 34.1358C46.3626 34.1467 45.7077 33.9667 45.1395 33.6167C44.5713 33.2667 44.1132 32.7611 43.8185 32.1587C43.4983 31.5087 43.3364 30.7909 43.3463 30.0651V29.7356C43.3347 28.9906 43.4919 28.2528 43.8059 27.5785C44.0865 26.9634 44.5286 26.4374 45.0843 26.0577C45.6085 25.7 46.2271 25.5093 46.8599 25.5102C47.3067 25.4904 47.752 25.5728 48.1627 25.7515C48.5733 25.9302 48.9385 26.2004 49.2308 26.5418C49.8169 27.2313 50.109 28.1725 50.1074 29.3655V29.8724H44.263V30.0651ZM49.2183 29.107V29.0056C49.2252 28.2962 48.9862 27.6067 48.5427 27.0564C48.3398 26.8099 48.084 26.6133 47.7946 26.4816C47.5052 26.3498 47.1898 26.2863 46.8725 26.296C46.5476 26.2901 46.2254 26.355 45.9276 26.4862C45.6298 26.6175 45.3636 26.8119 45.1471 27.0564C44.6514 27.6265 44.3518 28.3432 44.2931 29.0993L49.2183 29.107ZM40.9603 28.5062C40.9603 27.7644 40.8029 27.2144 40.4882 26.8561C40.1734 26.4979 39.666 26.3188 38.9662 26.3188C38.3537 26.3124 37.7619 26.5417 37.3111 26.9601C36.8751 27.3501 36.6052 27.8949 36.5576 28.4809V33.9786H35.6459V28.4429C35.6459 27.7306 35.4751 27.2009 35.1436 26.8485C34.8121 26.4962 34.3148 26.3239 33.6367 26.3239C33.1024 26.314 32.5817 26.4934 32.1649 26.8308C31.7201 27.216 31.4021 27.7288 31.2532 28.3009V33.9989H30.3415V25.6775H31.2155L31.2457 27.031C31.5189 26.5591 31.9116 26.1689 32.3834 25.9006C32.8502 25.6474 33.3731 25.5183 33.9029 25.5254C35.1963 25.5254 36.0201 26.0628 36.3667 27.1375C36.643 26.6378 37.0506 26.2246 37.5446 25.9437C38.04 25.6636 38.5993 25.5194 39.1671 25.5254C40.9285 25.5254 41.8268 26.4979 41.862 28.4429V33.9862H40.9603V28.5062ZM27.4985 28.5062C27.4985 27.7644 27.3402 27.2144 27.0238 26.8561C26.7073 26.4979 26.205 26.3188 25.5168 26.3188C24.9044 26.3124 24.3126 26.5417 23.8617 26.9601C23.4258 27.3501 23.1559 27.8949 23.1083 28.4809V33.9786H22.1966V28.4429C22.1966 27.7306 22.0258 27.2009 21.6943 26.8485C21.3628 26.4962 20.8655 26.3239 20.1874 26.3239C19.6524 26.3145 19.1311 26.4938 18.7131 26.8308C18.2691 27.2163 17.952 27.7291 17.8039 28.3009V33.9989H16.8922V25.6775H17.7662L17.7964 27.031C18.0696 26.5591 18.4622 26.1689 18.9341 25.9006C19.3969 25.6491 19.9154 25.52 20.441 25.5254C21.737 25.5254 22.5591 26.0628 22.9074 27.1375C23.1837 26.6378 23.5913 26.2246 24.0853 25.9437C24.5806 25.6636 25.14 25.5194 25.7077 25.5254C27.4675 25.5254 28.3658 26.4979 28.4026 28.4429V33.9862H27.4985V28.5062ZM13.6197 33.6136C13.046 33.9662 12.385 34.1473 11.7134 34.1358C11.2136 34.1521 10.7164 34.0562 10.2577 33.855C9.79906 33.6538 9.3904 33.3523 9.06122 32.9724C8.38311 32.1967 8.04321 31.1693 8.04153 29.8902V29.7051C8.02989 28.9602 8.1871 28.2224 8.50115 27.5481C8.78041 26.9325 9.23177 26.4127 9.79976 26.0525C10.3677 25.6922 11.0276 25.5073 11.6983 25.5204C12.1991 25.5029 12.6974 25.5983 13.157 25.7996C13.6166 26.0008 14.0261 26.3029 14.3556 26.6838C15.0337 27.4594 15.3727 28.4868 15.3727 29.766V29.9586C15.3843 30.7076 15.2272 31.4495 14.9131 32.1283C14.6335 32.7407 14.1843 33.2583 13.6197 33.6187V33.6136ZM14.4635 29.7102C14.4713 29.1105 14.3523 28.516 14.1144 27.9663C13.9103 27.4731 13.5715 27.0485 13.1375 26.7421C12.7114 26.4519 12.2073 26.3006 11.6933 26.3086C11.3116 26.3005 10.9333 26.3835 10.5894 26.5509C10.2455 26.7183 9.94561 26.9653 9.71422 27.2718C9.20187 27.9156 8.94653 28.7563 8.9482 29.7939V29.9637C8.91 30.8426 9.17642 31.7075 9.70166 32.4097C9.94358 32.7082 10.2482 32.9488 10.5935 33.114C10.9388 33.2791 11.3162 33.3648 11.6983 33.3648C12.0805 33.3648 12.4578 33.2791 12.8032 33.114C13.1485 32.9488 13.4531 32.7082 13.695 32.4097C14.1973 31.7709 14.4485 30.9302 14.4485 29.8876L14.4635 29.7102ZM1.96611 32.4857C2.19053 32.7794 2.48203 33.0139 2.81572 33.1693C3.1494 33.3246 3.51538 33.3962 3.88242 33.3779C4.45999 33.3976 5.02497 33.2048 5.47223 32.8355C5.68309 32.6644 5.85503 32.4496 5.97637 32.2056C6.09771 31.9615 6.16561 31.694 6.17546 31.4211H7.04697C7.0256 31.9192 6.86255 32.4006 6.57731 32.8076C6.28398 33.2285 5.8877 33.5655 5.42702 33.786C4.94867 34.0224 4.42258 34.1439 3.88995 34.1409C3.40514 34.1615 2.92209 34.0697 2.47796 33.8724C2.03384 33.6751 1.64049 33.3776 1.32818 33.0028C0.700295 32.2474 0.385517 31.2336 0.383842 29.9611V29.6722C0.369954 28.9247 0.515569 28.183 0.810804 27.4974C1.06497 26.9014 1.48784 26.3944 2.02639 26.04C2.58311 25.6926 3.22808 25.5164 3.88242 25.533C4.70142 25.5026 5.50012 25.7943 6.11016 26.3467C6.40216 26.6208 6.6358 26.9521 6.79685 27.3203C6.95791 27.6886 7.04301 28.086 7.04697 28.4885H6.17546C6.13217 28.0145 5.94938 27.5645 5.65059 27.1963C5.3518 26.828 4.95068 26.5584 4.49882 26.4221C4.04696 26.2858 3.56504 26.2891 3.11503 26.4315C2.66502 26.5739 2.26752 26.8489 1.97365 27.2211C1.52157 27.8227 1.29553 28.6625 1.29553 29.7406V30.0093C1.29051 31.0587 1.51404 31.8841 1.96611 32.4857Z" fill="#A6A5A5"/>
<path fill-rule="evenodd" clip-rule="evenodd" d="M70.2525 21.4801V23.3253C66.234 23.3253 64.2248 21.5958 64.2248 18.1368V0.393951H66.4274V6.22375H70.25V8.30473H66.4299V17.7566C66.4299 20.2389 67.7041 21.4801 70.2525 21.4801ZM60.6056 9.01951C60.0991 9.40387 59.6588 9.86972 59.3021 10.3984C58.9355 11.0422 58.7521 11.9015 58.7521 12.9762V22.9755H56.434V6.2643H58.4909V8.63931C58.9352 7.80274 59.6013 7.10742 60.4147 6.63113C61.2282 6.15484 62.157 5.91637 63.0971 5.9424V8.17039C62.1961 8.16577 61.3194 8.46458 60.6056 9.01951ZM52.6666 20.3648C50.8767 22.4382 48.6833 23.4352 46.0864 23.3557C44.9908 23.3297 43.9118 23.0797 42.9147 22.621C41.9175 22.1622 41.0228 21.5042 40.2847 20.6867C39.5092 19.8842 38.8983 18.9351 38.4872 17.8938C38.076 16.8525 37.8726 15.7395 37.8887 14.6187C37.8731 13.4486 38.0938 12.2877 38.5372 11.2065C38.9807 10.1253 39.6376 9.14665 40.4681 8.33008C41.257 7.49009 42.2176 6.83348 43.2832 6.40584C44.3488 5.9782 45.4939 5.78979 46.6389 5.85368C47.7524 5.87688 48.8498 6.1263 49.8656 6.58706C50.8814 7.04781 51.7947 7.71045 52.5511 8.53539C53.3325 9.3273 53.9421 10.2746 54.3411 11.3171C54.7402 12.3595 54.9201 13.4744 54.8693 14.5908V22.9755H52.6666V20.3648ZM50.8081 9.90412C50.2574 9.30248 49.5876 8.82421 48.8422 8.50024C48.0968 8.17626 47.2923 8.01381 46.4807 8.02338C45.6425 8.00906 44.8103 8.1686 44.0357 8.49212C43.2611 8.81563 42.5606 9.29622 41.9775 9.90412C41.3752 10.4975 40.8977 11.2073 40.5736 11.9913C40.2495 12.7753 40.0855 13.6171 40.0914 14.4666C40.0624 15.315 40.2002 16.1607 40.4968 16.9551C40.7933 17.7495 41.2428 18.4767 41.8193 19.0949C42.3571 19.7246 43.0174 20.236 43.7592 20.5975C44.501 20.959 45.3085 21.1627 46.1316 21.1962C47.0016 21.2469 47.8718 21.1004 48.6784 20.7675C49.485 20.4346 50.2075 19.9237 50.793 19.2724C51.415 18.6378 51.9019 17.8818 52.2241 17.0507C52.5463 16.2195 52.6969 15.3307 52.6666 14.4387C52.6584 12.7401 51.9912 11.1123 50.8081 9.90412ZM33.8326 12.7151C33.8623 11.5148 33.4729 10.3421 32.7325 9.40225C32.3903 8.95944 31.9496 8.60412 31.4461 8.36502C30.9426 8.12592 30.3904 8.00976 29.8342 8.02591C28.6723 8.00507 27.5467 8.43513 26.6898 9.22736C26.2677 9.59696 25.931 10.0553 25.7032 10.5703C25.4754 11.0852 25.3621 11.6443 25.3712 12.2082V22.9679H23.053V12.2082C23.0636 11.6449 22.9522 11.0862 22.7266 10.5709C22.501 10.0556 22.1667 9.59622 21.747 9.22482C20.8898 8.43304 19.7645 8.00306 18.6026 8.02338C18.049 8.00178 17.4984 8.11432 16.9967 8.35157C16.4951 8.58882 16.0571 8.94388 15.7193 9.38704C14.9914 10.3377 14.614 11.5143 14.6519 12.7151V22.9781H12.3614V12.9686C12.3614 10.8783 12.9474 9.19779 14.1195 7.92706C15.2229 6.73576 16.6721 6.05984 18.467 5.89931C20.8663 5.71174 22.7818 6.75181 24.2134 9.01951C25.6433 6.75181 27.5554 5.71596 29.9497 5.91198C31.7447 6.06913 33.203 6.74505 34.3248 7.93973C35.5237 9.21046 36.1231 10.891 36.1231 12.9812V22.9806H33.8326V12.7151ZM5.23365 23.414C4.56913 23.3781 3.91831 23.2092 3.31901 22.9172C2.7197 22.6252 2.18386 22.216 1.74261 21.7133C0.818803 20.7119 0.315564 19.3882 0.338651 18.0202H2.62667V18.5829C2.62667 19.1532 2.93559 19.7463 3.55343 20.3572C4.17127 20.9681 4.82929 21.2646 5.52499 21.2443C5.92968 21.2563 6.33269 21.1872 6.71076 21.041C7.08882 20.8948 7.43443 20.6745 7.72761 20.3927C8.22351 19.8482 8.49324 19.1323 8.48107 18.3928C8.49782 16.9599 7.69496 15.9789 6.0725 15.45L4.13359 14.8265C2.10427 14.1827 1.04188 12.7852 0.946444 10.6341C0.909092 10.0197 1.00553 9.40449 1.22899 8.83172C1.45245 8.25894 1.7975 7.74252 2.23989 7.31873C3.12176 6.41749 4.31323 5.89295 5.56769 5.85368C6.71932 5.80372 7.84679 6.1969 8.72218 6.95374C9.18125 7.30002 9.56045 7.74266 9.83361 8.25114C10.1068 8.75963 10.2674 9.32185 10.3045 9.89905V10.406H7.9863V10.0106C7.99099 9.72766 7.92597 9.448 7.79709 9.19671C7.66821 8.94541 7.4795 8.73037 7.24791 8.57087C6.75727 8.20632 6.16181 8.01402 5.55262 8.02338C4.95125 8.0355 4.37683 8.27735 3.94523 8.70014C3.72359 8.90748 3.54624 9.15831 3.42402 9.43724C3.3018 9.71618 3.2373 10.0174 3.23446 10.3223C3.15911 11.5204 3.86486 12.3746 5.35169 12.8849L7.26298 13.5338C9.46476 14.2959 10.6427 15.7812 10.7967 17.9898C10.9156 19.4954 10.3949 20.7999 9.23454 21.9034C8.71392 22.4299 8.08722 22.8373 7.39692 23.0979C6.70662 23.3586 5.96886 23.4664 5.23365 23.414Z" fill="#4D4D4E"/>
</svg>
