<svg width="190" height="99" viewBox="0 0 190 99" fill="none" xmlns="http://www.w3.org/2000/svg">
<g clip-path="url(#clip0_114_10588)">
<path fill-rule="evenodd" clip-rule="evenodd" d="M107.96 93.71V96.51C101.78 96.51 98.66 93.9 98.66 88.61V61.6H102.04V70.52H107.96V73.7H102.04V88.03C102.04 91.79 104.01 93.7 107.96 93.7V93.71ZM93.06 74.73C92.1 75.56 91.4 76.26 91.02 76.83C90.45 77.79 90.19 79.12 90.19 80.78V96H86.62V70.52H89.8V74.15C90.5 72.75 91.58 71.73 92.98 70.97C94.25 70.27 95.59 69.95 96.93 70.01V73.39C95.27 73.45 94 73.9 93.04 74.73H93.06ZM80.77 91.99C78.03 95.17 74.59 96.64 70.58 96.58C67.08 96.45 64.08 95.12 61.6 92.5C59.12 89.89 57.91 86.83 57.91 83.26C57.91 79.69 59.25 76.32 61.92 73.71C64.6 71.03 67.78 69.76 71.47 69.95C75.04 70.08 78.09 71.41 80.58 74.03C83.06 76.64 84.27 79.7 84.15 83.27V96.07H80.77V91.99ZM77.9 76.07C76.05 74.16 73.82 73.2 71.21 73.2C68.6 73.2 66.18 74.16 64.27 76.07C62.36 77.98 61.4 80.27 61.34 83.01C61.28 85.69 62.17 88.04 64.02 90.08C65.87 92.12 68.1 93.14 70.71 93.26C73.51 93.39 75.93 92.43 77.91 90.33C79.88 88.23 80.84 85.81 80.78 82.94C80.72 80.26 79.76 77.97 77.91 76.06L77.9 76.07ZM51.72 80.34C51.72 78.37 51.15 76.71 50 75.31C48.85 73.91 47.39 73.21 45.54 73.21C43.69 73.21 42.04 73.85 40.7 75.06C39.36 76.27 38.66 77.8 38.66 79.65V96.02H35.09V79.65C35.09 77.8 34.39 76.34 33.05 75.06C31.71 73.85 30.06 73.21 28.21 73.21C26.36 73.21 24.9 73.91 23.75 75.31C22.67 76.71 22.09 78.37 22.09 80.41V96.08H18.59V80.86C18.59 77.68 19.48 75.13 21.33 73.15C23.05 71.3 25.28 70.28 28.02 70.09C31.71 69.77 34.64 71.36 36.87 74.8C39.1 71.36 42.03 69.77 45.72 70.09C48.52 70.34 50.75 71.36 52.47 73.15C54.32 75.06 55.27 77.67 55.27 80.86V96.08H51.77L51.71 80.35L51.72 80.34ZM7.58 96.64C5.41 96.51 3.63 95.62 2.17 94.03C0.71 92.44 0 90.59 0 88.43H3.5V89.26C3.5 90.15 3.95 91.04 4.9 91.94C5.86 92.9 6.87 93.34 7.96 93.28C9.36 93.28 10.51 92.83 11.34 92.01C12.1 91.25 12.49 90.23 12.49 88.95C12.49 86.78 11.28 85.26 8.8 84.49L5.81 83.53C2.69 82.57 1.03 80.41 0.91 77.16C0.85 75.19 1.48 73.53 2.88 72.13C4.28 70.73 6 69.96 8.04 69.9C9.76 69.84 11.42 70.35 12.88 71.56C14.41 72.77 15.24 74.24 15.3 76.08V76.84H11.73V76.27C11.73 75.38 11.35 74.61 10.58 74.1C9.82 73.53 8.92 73.27 7.97 73.27C7.02 73.27 6.19 73.65 5.49 74.29C4.79 74.93 4.41 75.75 4.41 76.77C4.28 78.62 5.37 79.89 7.66 80.66L10.59 81.68C13.97 82.83 15.81 85.12 16.07 88.5C16.26 90.79 15.43 92.77 13.65 94.49C11.93 96.02 9.89 96.78 7.6 96.66L7.58 96.64Z" fill="#4E4E4F"/>
<path d="M127.83 72.47L125.54 74.84C123.63 72.99 121.76 72.06 119.94 72.06C118.78 72.06 117.79 72.44 116.96 73.21C116.13 73.97 115.72 74.87 115.72 75.89C115.72 76.79 116.06 77.65 116.74 78.46C117.42 79.29 118.85 80.27 121.03 81.39C123.69 82.77 125.49 84.09 126.45 85.37C127.39 86.66 127.86 88.12 127.86 89.73C127.86 92.01 127.06 93.94 125.46 95.52C123.86 97.1 121.86 97.89 119.46 97.89C117.86 97.89 116.33 97.54 114.87 96.85C113.41 96.16 112.21 95.19 111.26 93.97L113.5 91.42C115.32 93.48 117.26 94.5 119.3 94.5C120.73 94.5 121.95 94.04 122.96 93.12C123.97 92.2 124.47 91.12 124.47 89.88C124.47 88.86 124.14 87.95 123.48 87.15C122.82 86.37 121.31 85.38 118.98 84.19C116.48 82.9 114.77 81.62 113.87 80.36C112.97 79.11 112.51 77.67 112.51 76.05C112.51 73.94 113.23 72.19 114.67 70.8C116.11 69.41 117.92 68.71 120.12 68.71C122.67 68.71 125.25 69.96 127.83 72.46V72.47Z" fill="#A6A5A5"/>
<path d="M135.39 58C136.21 58 136.9 58.29 137.47 58.87C138.04 59.45 138.34 60.14 138.34 60.96C138.34 61.78 138.05 62.45 137.47 63.02C136.9 63.6 136.2 63.89 135.39 63.89C134.58 63.89 133.91 63.6 133.33 63.02C132.76 62.44 132.46 61.75 132.46 60.96C132.46 60.17 132.75 59.44 133.33 58.87C133.9 58.29 134.59 58 135.39 58ZM133.62 69.43H137.19V97.17H133.62V69.43Z" fill="#A6A5A5"/>
<path d="M147.72 59.13H151.29V69.44H156.95V72.52H151.29V97.18H147.72V72.52H142.85V69.44H147.72V59.13Z" fill="#A6A5A5"/>
<path d="M185.67 87.97L188.68 89.55C187.69 91.49 186.55 93.05 185.26 94.24C183.97 95.43 182.51 96.34 180.9 96.95C179.28 97.57 177.45 97.88 175.41 97.88C170.88 97.88 167.35 96.4 164.79 93.43C162.24 90.46 160.96 87.11 160.96 83.37C160.96 79.85 162.04 76.71 164.2 73.96C166.94 70.46 170.61 68.71 175.2 68.71C179.79 68.71 183.71 70.51 186.53 74.09C188.54 76.62 189.56 79.78 189.59 83.57H164.62C164.69 86.79 165.72 89.44 167.71 91.49C169.7 93.55 172.16 94.58 175.09 94.58C176.5 94.58 177.88 94.33 179.21 93.84C180.55 93.35 181.68 92.7 182.62 91.88C183.56 91.06 184.57 89.75 185.66 87.94L185.67 87.97ZM185.67 80.51C185.19 78.61 184.5 77.08 183.59 75.94C182.68 74.8 181.48 73.88 179.98 73.19C178.48 72.5 176.91 72.15 175.25 72.15C172.52 72.15 170.19 73.03 168.22 74.77C166.79 76.04 165.71 77.95 164.98 80.51H185.67Z" fill="#A6A5A5"/>
<path d="M59.2 47.35H28.29C24.57 47.35 21.57 44.35 21.57 40.63V9.72C21.57 6 24.57 3 28.29 3H59.2C62.92 3 65.92 6 65.92 9.72V40.63C65.92 44.35 62.92 47.35 59.2 47.35Z" stroke="#F36C24" stroke-width="1.13" stroke-miterlimit="10"/>
<path fill-rule="evenodd" clip-rule="evenodd" d="M57.65 23.06C57.65 23.99 56.93 24.71 56 24.71H55.17C53.83 24.71 52.79 23.68 52.79 22.33V20.68L50.83 12.1H55.38L57.76 20.78V23.05H57.66L57.65 23.06ZM56.1 38.25H53.21V28.02H44.63V38.25H31.5V25.54H32.33C33.47 25.54 34.6 24.92 35.12 23.89C35.74 24.92 36.77 25.54 37.91 25.54H38.01C39.15 25.54 40.28 24.92 40.8 23.89C41.42 24.92 42.45 25.54 43.59 25.54H43.69C44.83 25.54 45.96 24.92 46.48 23.89C47.1 24.92 48.13 25.54 49.27 25.54H49.37C50.51 25.54 51.64 24.92 52.16 23.89C52.78 24.92 53.81 25.54 54.95 25.54H55.78V38.25H56.09H56.1ZM45.35 38.25V28.84H52.28V38.25H45.35ZM34.7 20.68V22.33C34.7 23.67 33.67 24.71 32.32 24.71H31.49C30.56 24.71 29.84 23.99 29.84 23.06V20.68L32.22 12H36.77L34.7 20.68ZM41.21 12L40.38 20.58V22.23C40.38 23.57 39.35 24.61 38 24.61H37.9C36.56 24.61 35.52 23.58 35.52 22.23V20.58L37.48 11.9H41.2V12H41.21ZM46.17 22.34C46.17 23.68 45.14 24.72 43.79 24.72H43.69C42.35 24.72 41.31 23.69 41.31 22.34V20.69L42.14 12.11H45.45L46.28 20.69V22.34H46.18H46.17ZM47 20.58L46.17 12H49.89L51.85 20.68V22.33C51.85 23.67 50.82 24.71 49.47 24.71H49.37C48.03 24.71 46.99 23.68 46.99 22.33V20.57L47 20.58ZM55.99 11.17H31.6L29.02 20.47V23.05C29.02 24.08 29.64 25.01 30.67 25.32V38.96H56.82V25.32C57.75 25.01 58.47 24.08 58.47 23.05V20.57L55.99 11.16V11.17Z" fill="#F36C24"/>
<path fill-rule="evenodd" clip-rule="evenodd" d="M35.32 28.95H40.8V34.01H35.32V28.95ZM34.49 34.74H41.62V28.23H34.49V34.74Z" fill="#EC7333"/>
<path d="M110.26 47.35H79.35C75.63 47.35 72.63 44.35 72.63 40.63V9.72C72.63 6 75.63 3 79.35 3H110.26C113.98 3 116.98 6 116.98 9.72V40.63C116.98 44.35 113.98 47.35 110.26 47.35Z" fill="#F36C24" stroke="#F36C24" stroke-width="1.13" stroke-miterlimit="10"/>
<path fill-rule="evenodd" clip-rule="evenodd" d="M108.71 23.06C108.71 23.99 107.99 24.71 107.06 24.71H106.23C104.89 24.71 103.85 23.68 103.85 22.33V20.68L101.89 12.1H106.44L108.82 20.78V23.05H108.72L108.71 23.06ZM107.06 38.25H104.17V28.02H95.59V38.25H82.46V25.54H83.29C84.43 25.54 85.56 24.92 86.08 23.89C86.7 24.92 87.73 25.54 88.87 25.54H88.97C90.11 25.54 91.24 24.92 91.76 23.89C92.38 24.92 93.41 25.54 94.55 25.54H94.65C95.79 25.54 96.92 24.92 97.44 23.89C98.06 24.92 99.09 25.54 100.23 25.54H100.33C101.47 25.54 102.6 24.92 103.12 23.89C103.74 24.92 104.77 25.54 105.91 25.54H106.74V38.25H107.05H107.06ZM96.41 38.25V28.84H103.34V38.25H96.41ZM85.76 20.68V22.33C85.76 23.67 84.73 24.71 83.38 24.71H82.55C81.62 24.71 80.9 23.99 80.9 23.06V20.68L83.28 12H87.83L85.76 20.68ZM92.27 12L91.44 20.58V22.23C91.44 23.57 90.41 24.61 89.06 24.61H88.96C87.62 24.61 86.58 23.58 86.58 22.23V20.58L88.54 11.9H92.26V12H92.27ZM97.23 22.34C97.23 23.68 96.2 24.72 94.85 24.72H94.75C93.41 24.72 92.37 23.69 92.37 22.34V20.69L93.2 12.11H96.51L97.34 20.69V22.34H97.24H97.23ZM98.06 20.58L97.23 12H100.95L102.91 20.68V22.33C102.91 23.67 101.88 24.71 100.53 24.71H100.43C99.09 24.71 98.05 23.68 98.05 22.33V20.57L98.06 20.58ZM106.95 11.17H82.56L79.98 20.47V23.05C79.98 24.08 80.6 25.01 81.63 25.32V38.96H107.88V25.32C108.81 25.01 109.53 24.08 109.53 23.05V20.57L106.95 11.16V11.17Z" fill="white"/>
<path fill-rule="evenodd" clip-rule="evenodd" d="M86.38 28.95H91.86V34.01H86.38V28.95ZM85.45 34.74H92.58V28.23H85.45V34.74Z" fill="white"/>
<path d="M160.8 47.35H129.89C126.17 47.35 123.17 44.35 123.17 40.63V9.72C123.17 6 126.17 3 129.89 3H160.8C164.52 3 167.52 6 167.52 9.72V40.63C167.52 44.35 164.52 47.35 160.8 47.35Z" stroke="#F36C24" stroke-width="1.13" stroke-miterlimit="10"/>
<path fill-rule="evenodd" clip-rule="evenodd" d="M159.25 23.06C159.25 23.99 158.53 24.71 157.6 24.71H156.77C155.43 24.71 154.39 23.68 154.39 22.33V20.68L152.43 12.1H156.98L159.36 20.78V23.05H159.26L159.25 23.06ZM157.6 38.25H154.71V28.02H146.13V38.25H133V25.54H133.83C134.97 25.54 136.1 24.92 136.62 23.89C137.24 24.92 138.27 25.54 139.41 25.54H139.51C140.65 25.54 141.78 24.92 142.3 23.89C142.92 24.92 143.95 25.54 145.09 25.54H145.19C146.33 25.54 147.46 24.92 147.98 23.89C148.6 24.92 149.63 25.54 150.77 25.54H150.87C152.01 25.54 153.14 24.92 153.66 23.89C154.28 24.92 155.31 25.54 156.45 25.54H157.28V38.25H157.59H157.6ZM146.95 38.25V28.84H153.88V38.25H146.95ZM136.3 20.68V22.33C136.3 23.67 135.27 24.71 133.92 24.71H133.09C132.16 24.71 131.44 23.99 131.44 23.06V20.68L133.82 12H138.37L136.3 20.68ZM142.81 12L141.98 20.58V22.23C141.98 23.57 140.95 24.61 139.6 24.61H139.5C138.16 24.61 137.12 23.58 137.12 22.23V20.58L139.08 11.9H142.8V12H142.81ZM147.77 22.34C147.77 23.68 146.74 24.72 145.39 24.72H145.29C143.95 24.72 142.91 23.69 142.91 22.34V20.69L143.74 12.11H147.05L147.88 20.69V22.34H147.78H147.77ZM148.6 20.58L147.77 12H151.49L153.45 20.68V22.33C153.45 23.67 152.42 24.71 151.07 24.71H150.97C149.63 24.71 148.59 23.68 148.59 22.33V20.57L148.6 20.58ZM157.49 11.17H133.1L130.52 20.47V23.05C130.52 24.08 131.14 25.01 132.17 25.32V38.96H158.42V25.32C159.35 25.01 160.07 24.08 160.07 23.05V20.57L157.49 11.16V11.17Z" fill="#F36C24"/>
<path fill-rule="evenodd" clip-rule="evenodd" d="M136.82 28.95H142.3V34.01H136.82V28.95ZM135.99 34.74H143.12V28.23H135.99V34.74Z" fill="#EC7333"/>
<path fill-rule="evenodd" clip-rule="evenodd" d="M13.2 34.01L4 25.12L13.2 16.23L14.65 17.57L6.79 25.12L14.65 32.77L13.2 34.01Z" fill="#F36C24"/>
<path fill-rule="evenodd" clip-rule="evenodd" d="M175.89 34.01L185.09 25.12L175.89 16.23L174.55 17.57L182.3 25.12L174.55 32.77L175.89 34.01Z" fill="#EC7333"/>
</g>
<defs>
<clipPath id="clip0_114_10588">
<rect width="189.59" height="98.11" fill="white"/>
</clipPath>
</defs>
</svg>
