<svg width="31" height="41" viewBox="0 0 31 41" fill="none" xmlns="http://www.w3.org/2000/svg">
<path fill-rule="evenodd" clip-rule="evenodd" d="M26.3385 17.474L15.1747 6.18195L7.34375 14.1054L18.505 25.3975L14.5896 29.3592L2.44875 17.0786C1.66949 16.2895 1.23192 15.2208 1.23192 14.1067C1.23192 12.9926 1.66949 11.9239 2.44875 11.1347L12.2438 1.23169C12.6288 0.841226 13.0865 0.531381 13.5906 0.319957C14.0947 0.108533 14.6352 -0.000305176 15.181 -0.000305176C15.7269 -0.000305176 16.2674 0.108533 16.7714 0.319957C17.2755 0.531381 17.7332 0.841226 18.1183 1.23169L30.2591 13.5123L26.3385 17.474ZM15.0693 33.8152L22.9028 25.8917L11.749 14.6022L15.6645 10.6455L27.8053 22.9261C28.5846 23.7153 29.0221 24.784 29.0221 25.8981C29.0221 27.0122 28.5846 28.0809 27.8053 28.87L18.0153 38.7807C17.6302 39.1711 17.1725 39.481 16.6685 39.6924C16.1644 39.9038 15.6239 40.0127 15.078 40.0127C14.5322 40.0127 13.9917 39.9038 13.4876 39.6924C12.9836 39.481 12.5259 39.1711 12.1408 38.7807L0 26.4874L3.91549 22.5257L15.0693 33.8152Z" fill="#F26B21"/>
</svg>
