<svg width="188" height="101" viewBox="0 0 188 101" fill="none" xmlns="http://www.w3.org/2000/svg">
<g clip-path="url(#clip0_114_10578)">
<path fill-rule="evenodd" clip-rule="evenodd" d="M107.03 95.39V98.17C100.91 98.17 97.81 95.58 97.81 90.34V63.57H101.16V72.41H107.03V75.57H101.16V89.78C101.16 93.51 103.12 95.4 107.03 95.4V95.39ZM92.26 76.57C91.31 77.39 90.62 78.09 90.24 78.65C89.67 79.6 89.42 80.92 89.42 82.56V97.65H85.88V72.39H89.04V75.99C89.73 74.6 90.81 73.59 92.2 72.83C93.46 72.14 94.79 71.82 96.11 71.88V75.23C94.47 75.29 93.21 75.74 92.26 76.56V76.57ZM80.07 93.68C77.36 96.84 73.95 98.29 69.97 98.23C66.5 98.1 63.53 96.78 61.07 94.19C58.61 91.6 57.41 88.57 57.41 85.03C57.41 81.49 58.74 78.15 61.39 75.56C64.04 72.91 67.2 71.65 70.86 71.83C74.4 71.96 77.43 73.28 79.89 75.87C82.35 78.46 83.55 81.49 83.43 85.03V97.72H80.08V93.68H80.07ZM77.23 77.9C75.4 76.01 73.19 75.06 70.6 75.06C68.01 75.06 65.61 76.01 63.72 77.9C61.83 79.79 60.88 82.07 60.82 84.78C60.76 87.43 61.64 89.77 63.47 91.79C65.3 93.81 67.51 94.82 70.1 94.95C72.88 95.08 75.28 94.13 77.23 92.05C79.19 89.97 80.13 87.57 80.07 84.73C80.01 82.08 79.06 79.81 77.23 77.91V77.9ZM51.28 82.13C51.28 80.17 50.71 78.53 49.58 77.14C48.45 75.75 46.99 75.06 45.16 75.06C43.33 75.06 41.69 75.69 40.36 76.89C39.03 78.09 38.34 79.6 38.34 81.44V97.67H34.8V81.44C34.8 79.61 34.11 78.16 32.78 76.89C31.45 75.69 29.81 75.06 27.98 75.06C26.15 75.06 24.7 75.75 23.56 77.14C22.49 78.53 21.92 80.17 21.92 82.19V97.72H18.45V82.63C18.45 79.47 19.33 76.95 21.16 74.99C22.86 73.16 25.07 72.15 27.79 71.96C31.45 71.64 34.36 73.22 36.57 76.63C38.78 73.22 41.68 71.64 45.35 71.96C48.13 72.21 50.34 73.22 52.04 74.99C53.87 76.88 54.82 79.47 54.82 82.63V97.72H51.35L51.29 82.12L51.28 82.13ZM7.52 98.29C5.37 98.16 3.61 97.28 2.15 95.7C0.7 94.12 0 92.29 0 90.14H3.47V90.96C3.47 91.84 3.91 92.73 4.86 93.61C5.81 94.56 6.82 95 7.89 94.94C9.28 94.94 10.42 94.5 11.24 93.68C12 92.92 12.38 91.91 12.38 90.65C12.38 88.5 11.18 86.99 8.72 86.23L5.75 85.28C2.66 84.33 1.01 82.19 0.89 78.97C0.83 77.01 1.46 75.37 2.85 73.98C4.24 72.59 5.94 71.83 7.96 71.77C9.66 71.71 11.31 72.21 12.76 73.41C14.28 74.61 15.1 76.06 15.16 77.89V78.65H11.62V78.08C11.62 77.2 11.24 76.44 10.48 75.93C9.72 75.36 8.84 75.11 7.89 75.11C6.94 75.11 6.12 75.49 5.43 76.12C4.74 76.75 4.36 77.57 4.36 78.58C4.23 80.41 5.31 81.67 7.58 82.43L10.48 83.44C13.83 84.58 15.66 86.85 15.91 90.2C16.1 92.47 15.28 94.43 13.51 96.14C11.81 97.66 9.78 98.41 7.51 98.29H7.52Z" fill="#4E4E4F"/>
<path d="M112.37 60.71H115.91V98.83H112.37V60.71Z" fill="#A6A5A5"/>
<path d="M124.49 60C125.3 60 125.99 60.28 126.55 60.86C127.12 61.43 127.41 62.12 127.41 62.93C127.41 63.74 127.13 64.41 126.55 64.98C125.98 65.55 125.29 65.84 124.49 65.84C123.69 65.84 123.02 65.56 122.45 64.98C121.88 64.41 121.59 63.72 121.59 62.93C121.59 62.14 121.87 61.43 122.45 60.86C123.02 60.29 123.7 60 124.49 60ZM122.73 71.33H126.27V98.83H122.73V71.33Z" fill="#A6A5A5"/>
<path d="M133.63 71.33H137.17V76.26C138.58 74.37 140.15 72.96 141.87 72.02C143.59 71.09 145.46 70.62 147.48 70.62C149.5 70.62 151.36 71.14 152.95 72.19C154.54 73.24 155.72 74.64 156.48 76.41C157.24 78.18 157.62 80.94 157.62 84.67V98.83H154.08V85.71C154.08 82.54 153.95 80.43 153.69 79.36C153.28 77.54 152.49 76.17 151.33 75.25C150.17 74.33 148.65 73.87 146.78 73.87C144.64 73.87 142.72 74.58 141.03 75.99C139.34 77.4 138.22 79.16 137.68 81.25C137.35 82.61 137.17 85.11 137.17 88.73V98.82H133.63V71.32V71.33Z" fill="#A6A5A5"/>
<path d="M165.18 60.71H168.72V82.43L181.47 71.33H186.67L171.55 84.45L187.55 98.83H182.57L168.72 86.45V98.83H165.18V60.71Z" fill="#A6A5A5"/>
<path d="M115.82 15.7217C115.82 18.5017 114.81 21.0217 112.85 22.9817L104.01 31.6917C101.36 34.3417 98.52 35.7917 95.74 35.7917C93.53 35.7917 91.45 34.9117 89.68 33.0117C88.61 31.9417 88.61 30.2317 89.68 29.1617C90.69 28.0917 92.46 28.0917 93.53 29.1617C94.29 29.9217 96.18 31.8117 100.16 27.8317L109 19.1217C109.88 18.2417 110.45 17.0417 110.45 15.7117C110.45 14.3817 109.88 13.1817 109 12.1717C107.23 10.5317 104.58 9.6417 102.5 11.7317L97.89 16.5317C96.82 17.5417 95.11 17.5417 94.04 16.4017C92.97 15.3917 92.97 13.6217 94.04 12.5517L98.65 7.7517C102.63 3.9017 108.56 4.0917 112.86 8.3217C114.88 10.3417 115.83 12.9917 115.83 15.7117L115.82 15.7217Z" fill="#F36C24"/>
<path d="M72.01 38.7017C72.01 35.9217 73.02 33.4017 74.98 31.4417L83.82 22.7317C86.47 20.0817 89.31 18.6317 92.09 18.6317C94.3 18.6317 96.38 19.5117 98.15 21.4117C99.22 22.4817 99.22 24.1917 98.15 25.2617C97.14 26.3317 95.37 26.3317 94.3 25.2617C93.54 24.5017 91.65 22.6117 87.67 26.5917L78.83 35.3017C77.95 36.1817 77.38 37.3817 77.38 38.7117C77.38 40.0417 77.95 41.2417 78.83 42.2517C80.6 43.8917 83.25 44.7817 85.33 42.6917L89.94 37.8917C91.01 36.8817 92.72 36.8817 93.79 38.0217C94.86 39.0317 94.86 40.8017 93.79 41.8717L89.18 46.6717C85.2 50.5217 79.27 50.3317 74.97 46.1017C73.01 44.1417 72 41.4917 72 38.7117L72.01 38.7017Z" fill="#F36C24"/>
</g>
<defs>
<clipPath id="clip0_114_10578">
<rect width="187.55" height="100.11" fill="white"/>
</clipPath>
</defs>
</svg>
