<svg width="496" height="92" viewBox="0 0 496 92" fill="none" xmlns="http://www.w3.org/2000/svg">
<path d="M45.9774 76.6734C39.9115 76.671 33.9824 74.8697 28.9401 71.4973C23.8978 68.1248 19.9688 63.3326 17.6498 57.7269C15.3308 52.1211 14.7262 45.9534 15.9122 40.0039C17.0983 34.0544 20.0218 28.5903 24.3131 24.3026C28.6044 20.0148 34.0707 17.0961 40.0206 15.9154C45.9706 14.7348 52.1371 15.3453 57.7401 17.6697C63.3432 19.9941 68.1312 23.928 71.4986 28.974C74.866 34.0199 76.6616 39.9512 76.6583 46.0178C76.6583 54.1526 73.4271 61.9542 67.6756 67.7064C61.924 73.4585 54.1232 76.69 45.9893 76.69M45.9893 0.0166438C20.5887 -7.26322e-08 0 20.5956 0 46.0178C0 71.4401 20.5887 92 45.9774 92C71.3662 92 92 71.3997 92 46.0178C92 20.636 71.3804 0 45.9774 0L45.9893 0.0166438Z" fill="#CC0000"/>
<path d="M45.9807 30C42.8176 30.0038 39.7267 30.9451 37.0983 32.7049C34.47 34.4646 32.4222 36.964 31.2138 39.8871C30.0053 42.8102 29.6904 46.0259 30.3087 49.1279C30.9271 52.23 32.451 55.0791 34.688 57.3154C36.925 59.5517 39.7746 61.0748 42.8768 61.6922C45.979 62.3096 49.1946 61.9937 52.1173 60.7844C55.0401 59.575 57.5388 57.5265 59.2978 54.8977C61.0568 52.2688 61.9971 49.1775 62 46.0145C62.0028 43.9107 61.5903 41.827 60.7861 39.883C59.9819 37.9389 58.8018 36.1728 57.3135 34.6859C55.8253 33.1989 54.0581 32.0204 52.1133 31.218C50.1685 30.4155 48.0845 30.0049 45.9807 30.0097" fill="#CC0000"/>
<path d="M126.33 26.36H105V13.19H163.31V26.36H141.98V84.37H126.33V26.36Z" fill="#CC0000"/>
<path d="M156.54 84.37H172.38L177.97 68.54H204.58L209.97 84.39H226.18L199.56 13.21H183.56L156.56 84.39M191.35 30.75H191.54L200.54 56.87H182.06L191.35 30.75Z" fill="#CC0000"/>
<path d="M232.39 84.37H248.05V56.54H263.69C271.57 56.54 274.46 59.83 275.55 67.3C276.36 72.98 276.16 79.86 278.05 84.35H293.69C290.91 80.35 291.01 71.98 290.69 67.5C290.19 60.31 288.01 52.84 280.33 50.85V50.65C288.21 47.46 291.6 41.19 291.6 32.81C291.6 22.05 283.52 13.18 270.76 13.18H232.39V84.35M248.05 25.35H265.18C272.18 25.35 275.93 28.35 275.93 35.22C275.93 42.39 272.14 45.39 265.18 45.39H248.05V25.35Z" fill="#CC0000"/>
<path d="M353.8 76.29C351.548 79.3471 348.605 81.8279 345.21 83.5294C341.816 85.231 338.067 86.105 334.27 86.08C312.27 86.08 299.27 69.61 299.27 49.08C299.27 27.96 312.27 11.52 334.27 11.52C348.82 11.52 362.58 20.52 364.27 36.62H349.27C347.47 28.74 341.59 24.67 334.27 24.67C320.21 24.67 314.92 36.62 314.92 49.08C314.92 60.95 320.21 72.91 334.27 72.91C344.44 72.91 350.27 67.43 351.21 57.55H335.47V45.89H365.37V84.37H355.37L353.78 76.29" fill="#CC0000"/>
<path d="M376.04 13.19H429.25V26.36H391.68V41.6H426.17V53.77H391.68V71.21H430.06V84.37H376.04V13.19Z" fill="#CC0000"/>
<path d="M458.37 26.36H437.03V13.19H495.36V26.36H474.01V84.37H458.37V26.36Z" fill="#CC0000"/>
</svg>
