<svg width="234" height="57" viewBox="0 0 234 57" fill="none" xmlns="http://www.w3.org/2000/svg">
<g clip-path="url(#clip0_223_38)">
<path d="M135.47 29.8C135.47 24.27 133.11 19.39 125.1 19.39C121.932 19.3497 118.803 20.1026 116 21.58L117.3 26.02C119.326 24.8268 121.629 24.1855 123.98 24.16C127.98 24.16 128.7 26.44 128.7 27.92V28.27C119.85 28.27 114.25 31.32 114.25 37.54C114.25 41.35 117.09 44.91 122.06 44.91C123.406 44.9558 124.745 44.6962 125.976 44.1506C127.208 43.6051 128.3 42.7877 129.17 41.76H129.32C129.32 41.76 130.32 45.98 135.9 44.37C135.614 42.4201 135.484 40.4506 135.51 38.48L135.47 29.8ZM128.87 35.64C128.892 36.0997 128.834 36.5598 128.7 37C128.386 37.9263 127.786 38.7288 126.986 39.2914C126.186 39.8541 125.228 40.1478 124.25 40.13C123.811 40.1756 123.368 40.1239 122.952 39.9787C122.536 39.8336 122.157 39.5984 121.841 39.29C121.526 38.9816 121.283 38.6076 121.129 38.1945C120.975 37.7814 120.914 37.3394 120.95 36.9C120.95 33.55 124.65 32.62 128.87 32.65" fill="#0071CE"/>
<path d="M0 11.86C0 11.86 5.78 35.51 6.7 39.34C7.78 43.81 9.7 45.47 15.31 44.34L18.93 29.7C19.84 26.07 20.46 23.47 21.05 19.76H21.15C21.559 23.1215 22.1431 26.4594 22.9 29.76L25.14 39.91C25.88 43.4 27.97 45.6 33.46 44.41L42.06 11.9H35.12L32.17 25.92C31.39 30 30.68 33.21 30.12 36.92H30C29.51 33.23 28.87 30.15 28.06 26.16L25 11.86H17.78L14.52 25.86C13.59 30.12 12.72 33.54 12.17 37.15H12.08C11.51 33.76 10.75 29.44 9.94 25.34C9.94 25.34 8 15.34 7.31 11.91" fill="#0071CE"/>
<path d="M61.41 29.8C61.41 24.27 59 19.39 51 19.39C47.818 19.343 44.6752 20.0961 41.86 21.58L43.19 26C45.2158 24.8068 47.519 24.1655 49.87 24.14C53.93 24.14 54.59 26.42 54.59 27.9V28.25C45.74 28.25 40.14 31.3 40.14 37.52C40.14 41.33 42.99 44.89 47.93 44.89C49.2794 44.9388 50.6222 44.6807 51.8573 44.135C53.0924 43.5894 54.1875 42.7705 55.06 41.74H55.21C55.21 41.74 56.21 45.96 61.79 44.35C61.5078 42.3998 61.3808 40.4303 61.41 38.46V29.8ZM54.8 35.64C54.8199 36.2448 54.7123 36.847 54.4841 37.4075C54.2559 37.9679 53.9122 38.474 53.4755 38.8929C53.0387 39.3117 52.5187 39.6339 51.9491 39.8384C51.3796 40.0429 50.7734 40.1253 50.17 40.08C49.7323 40.124 49.2902 40.0712 48.8751 39.9253C48.4601 39.7794 48.0822 39.544 47.7683 39.2358C47.4543 38.9276 47.212 38.5541 47.0585 38.1418C46.905 37.7295 46.8441 37.2885 46.88 36.85C46.88 33.5 50.58 32.57 54.8 32.6" fill="#0071CE"/>
<path d="M65.01 11.86V44.36H71.62V37.47V11.86H65.01Z" fill="#0071CE"/>
<path d="M155.75 11.86V35.86C155.75 39.17 156.37 41.47 157.75 42.86C158.467 43.5367 159.313 44.0625 160.237 44.4061C161.161 44.7496 162.145 44.904 163.13 44.86C164.756 44.871 166.375 44.635 167.93 44.16L167.85 39C167.024 39.1931 166.178 39.2904 165.33 39.29C163.07 39.29 162.33 37.86 162.33 34.89V25.76H168V19.55H162.25V11.86" fill="#0071CE"/>
<path d="M138.68 20V44.37H145.51V31.86C145.502 31.2603 145.549 30.6611 145.65 30.07C145.858 28.8111 146.525 27.6738 147.522 26.8778C148.519 26.0818 149.776 25.6836 151.05 25.76C151.721 25.7619 152.391 25.8255 153.05 25.95V19.55C152.56 19.4482 152.06 19.4012 151.56 19.41C150.048 19.4575 148.589 19.9808 147.391 20.9054C146.194 21.8301 145.319 23.109 144.89 24.56H144.72V20" fill="#0071CE"/>
<path d="M75.46 20V44.37H82.11V30C82.0953 29.3203 82.2002 28.6433 82.42 28C82.6903 27.134 83.2178 26.3708 83.9323 25.8117C84.6467 25.2526 85.5144 24.9242 86.42 24.87C89.1 24.87 90.42 27.13 90.42 30.4V44.37H97.06V29.86C97.0543 29.1839 97.1452 28.5104 97.33 27.86C97.5829 26.9948 98.1094 26.2348 98.8305 25.694C99.5516 25.1532 100.429 24.8605 101.33 24.86C104.04 24.86 105.33 27.08 105.33 30.92V44.37H112V30C112 22.44 108.15 19.44 103.78 19.44C102.079 19.4044 100.405 19.8629 98.96 20.76C97.7305 21.5316 96.6776 22.5538 95.87 23.76H95.77C95.226 22.4266 94.2841 21.2934 93.0725 20.515C91.861 19.7365 90.4389 19.3506 89 19.41C87.5736 19.3236 86.1514 19.6385 84.8948 20.3189C83.6382 20.9994 82.5972 22.0182 81.89 23.26H81.79V20" fill="#0071CE"/>
<path d="M203.79 18.85C205.09 18.85 206.19 18.17 206.33 17.3L207.63 2.64C207.63 1.19 205.92 0 203.79 0C201.66 0 199.94 1.19 199.94 2.64L201.25 17.3C201.39 18.17 202.48 18.85 203.79 18.85Z" fill="#FFC220"/>
<path d="M195.85 23.44C196.49 22.3 196.46 21.02 195.76 20.44L183.68 12C182.42 11.27 180.54 12.14 179.46 14C178.38 15.86 178.61 17.92 179.84 18.64L193.21 24.84C193.745 24.9388 194.297 24.8531 194.777 24.5969C195.256 24.3408 195.635 23.9293 195.85 23.43" fill="#FFC220"/>
<path d="M211.72 23.43C212.41 24.56 213.53 25.16 214.36 24.85L227.74 18.64C228.98 17.9 229.16 15.85 228.11 14C227.06 12.15 225.11 11.29 223.89 12L211.81 20.44C211.467 20.8615 211.275 21.385 211.262 21.928C211.249 22.4711 211.417 23.0029 211.74 23.44" fill="#FFC220"/>
<path d="M203.79 37.16C205.09 37.16 206.19 37.84 206.33 38.72L207.63 53.38C207.63 54.83 205.92 56.01 203.79 56.01C201.66 56.01 199.94 54.83 199.94 53.38L201.25 38.72C201.39 37.84 202.48 37.16 203.79 37.16Z" fill="#FFC220"/>
<path d="M211.72 32.59C212.41 31.45 213.53 30.85 214.36 31.18L227.74 37.38C228.98 38.1 229.16 40.17 228.11 42.02C227.06 43.87 225.11 44.73 223.89 44.02L211.81 35.57C211.464 35.15 211.269 34.626 211.257 34.0821C211.244 33.5382 211.414 33.0057 211.74 32.57" fill="#FFC220"/>
<path d="M195.85 32.58C196.49 33.72 196.46 34.99 195.76 35.58L183.68 44C182.42 44.73 180.54 43.85 179.46 42C178.38 40.15 178.61 38.08 179.84 37.36L193.21 31.15C193.745 31.0512 194.297 31.1369 194.777 31.3931C195.256 31.6492 195.635 32.0607 195.85 32.56" fill="#FFC220"/>
<path d="M231.65 42.72H231.82C232.04 42.72 232.13 42.79 232.16 42.97C232.178 43.109 232.218 43.2442 232.28 43.37H232.71C232.639 43.245 232.601 43.1038 232.6 42.96C232.589 42.8727 232.552 42.7904 232.496 42.7231C232.439 42.6557 232.364 42.6061 232.28 42.58V42.58C232.374 42.5683 232.461 42.5236 232.525 42.4541C232.589 42.3845 232.626 42.2945 232.63 42.2C232.628 42.0681 232.574 41.9423 232.48 41.85C232.297 41.7597 232.094 41.7183 231.89 41.73C231.682 41.7244 231.473 41.7445 231.27 41.79V43.41H231.65V42.72ZM231.65 41.98H231.85C232.07 41.98 232.2 42.08 232.2 42.23C232.2 42.38 232.03 42.48 231.82 42.48H231.65V41.98ZM231.89 40.88C231.663 40.8623 231.435 40.8917 231.22 40.9663C231.005 41.041 230.808 41.1593 230.641 41.3137C230.474 41.4682 230.341 41.6556 230.25 41.864C230.159 42.0725 230.112 42.2975 230.112 42.525C230.112 42.7525 230.159 42.9775 230.25 43.186C230.341 43.3944 230.474 43.5818 230.641 43.7363C230.808 43.8907 231.005 44.009 231.22 44.0837C231.435 44.1583 231.663 44.1877 231.89 44.17C232.117 44.1877 232.345 44.1583 232.56 44.0837C232.775 44.009 232.972 43.8907 233.139 43.7363C233.306 43.5818 233.439 43.3944 233.53 43.186C233.621 42.9775 233.668 42.7525 233.668 42.525C233.668 42.2975 233.621 42.0725 233.53 41.864C233.439 41.6556 233.306 41.4682 233.139 41.3137C232.972 41.1593 232.775 41.041 232.56 40.9663C232.345 40.8917 232.117 40.8623 231.89 40.88ZM231.89 41.21C232.151 41.2 232.409 41.2683 232.631 41.4061C232.853 41.5438 233.028 41.7447 233.135 41.9831C233.242 42.2214 233.275 42.4862 233.231 42.7435C233.186 43.0009 233.065 43.2389 232.884 43.4272C232.703 43.6154 232.47 43.7452 232.215 43.8C231.959 43.8547 231.693 43.8318 231.451 43.7343C231.209 43.6368 231.001 43.4691 230.855 43.2527C230.708 43.0363 230.63 42.7812 230.63 42.52C230.625 42.3507 230.653 42.1821 230.714 42.024C230.775 41.866 230.867 41.7216 230.984 41.5996C231.101 41.4775 231.242 41.3802 231.398 41.3133C231.553 41.2464 231.721 41.2112 231.89 41.21" fill="#FFC220"/>
</g>
<defs>
<clipPath id="clip0_223_38">
<rect width="233.58" height="56.01" fill="white"/>
</clipPath>
</defs>
</svg>
